# xmcd CD database file
#
# Track frame offsets:
#	150
#	28568
#	57980
#	85907
#	109432
#	140893
#	167980
#	196217
#
# Disc length: 2949 seconds
#
# Revision: 0
# Processed by: cddbd v1.5.2PL0 Copyright (c) Steve Scherf et al.
# Submitted via: CDex 1.70beta2
#
DISCID=730b8308
DTITLE=西山瞳トリオ - I'm Missing You
DYEAR=2004
DGENRE=Jazz
TTITLE0=This I Promise You
TTITLE1=Passato
TTITLE2=Blue Nowhere
TTITLE3=Everytime It Rains
TTITLE4=Blast Of Wind
TTITLE5=Sand Castle
TTITLE6=Epigraph
TTITLE7=I'm Missing You
EXTD=YEAR: 2004
EXTT0=
EXTT1=
EXTT2=
EXTT3=
EXTT4=
EXTT5=
EXTT6=
EXTT7=
PLAYORDER=
